#!OML:ASF X:\für Bonn\!DataBase\2005_08_10_Bjorn_Final\c3d\bjorn.ASF
:FULLY-SPECIFIED
:DEGREES
167
root -18.318 19.4763 -0.284272 1815.53 -82.4863 -373.899
lowerback -5.82289 7.36999 -5.05877
upperback 7.29753 10.9823 -9.46737
thorax 12.2983 5.1882 -5.82412
lowerneck -3.7034 -12.6825 4.48652
upperneck 3.91555 -17.9285 9.82661
head 2.46352 -8.72939 1.76623
rclavicle -1.08139e-013 5.725e-014
rhumerus 42.996 -22.2313 -56.3696
rradius 49.5743
rwrist -34.4553
rhand -8.53932 7.80016
rfingers 7.12502
rthumb 17.3898 -21.4419
lclavicle -1.08139e-013 5.725e-014
lhumerus -25.859 3.56611 72.104
lradius 20.1229
lwrist -23.9178
lhand -19.7158 -4.19863
lfingers 7.12502
lthumb 6.61421 25.6781
rfemur -4.04366 -2.41762 18.1316
rtibia 37.0171
rfoot -9.09095 19.606
rtoes -20.337
lfemur -16.2811 4.0866 -16.6139
ltibia 26.2409
lfoot -2.125 -18.8972
ltoes 5.18444
168
root -18.2955 19.4737 -0.303695 1814.95 -82.3275 -373.342
lowerback -5.89571 7.30884 -5.07064
upperback 7.27253 10.9069 -9.40827
thorax 12.2884 5.14827 -5.75581
lowerneck -3.58052 -12.6491 4.38434
upperneck 4.03686 -17.8765 9.78261
head 2.48621 -8.7014 1.77404
rclavicle 1.59028e-015 4.45278e-014
rhumerus 43.2186 -22.9189 -58.2111
rradius 50.9796
rwrist -34.8313
rhand -9.93014 7.78853
rfingers 7.12502
rthumb 16.0509 -21.5666
lclavicle 1.59028e-015 4.45278e-014
lhumerus -25.9694 3.2588 72.291
lradius 20.3048
lwrist -23.6966
lhand -19.7867 -4.15229
lfingers 7.12502
lthumb 6.54578 25.7265
rfemur -3.74608 -2.17731 18.1076
rtibia 36.8874
rfoot -8.77778 20.0957
rtoes -20.2588
lfemur -16.334 3.92372 -16.589
ltibia 26.2056
lfoot -2.01988 -19.0083
ltoes 4.98478
169
root -18.2722 19.4711 -0.323736 1814.48 -82.1416 -372.9
lowerback -5.96104 7.23962 -5.06367
upperback 7.25404 10.8175 -9.32767
thorax 12.2787 5.10259 -5.67673
lowerneck -3.48602 -12.6228 4.21922
upperneck 4.18378 -17.8346 9.72887
head 2.52785 -8.67682 1.78444
rclavicle -9.54166e-014 4.13472e-014
rhumerus 43.3989 -23.5313 -59.9628
rradius 52.4543
rwrist -35.1706
rhand -11.2548 7.72957
rfingers 7.12502
rthumb 14.775 -21.7238
lclavicle -9.54166e-014 4.13472e-014
lhumerus -26.0799 3.0115 72.5018
lradius 20.4727
lwrist -23.5041
lhand -19.8502 -4.13981
lfingers 7.12502
lthumb 6.48439 25.7409
rfemur -3.45209 -1.92296 18.1135
rtibia 36.7466
rfoot -8.43359 20.5834
rtoes -20.1078
lfemur -16.3769 3.74621 -16.5363
ltibia 26.1512
lfoot -1.8608 -19.1342
ltoes 5.04817
170
root -18.2474 19.4702 -0.344531 1813.7 -81.9455 -372.148
lowerback -6.00749 7.16896 -5.06697
upperback 7.22513 10.7257 -9.29079
thorax 12.2544 5.05745 -5.64397
lowerneck -3.41088 -12.5975 4.08889
upperneck 4.32983 -17.8007 9.6997
head 2.57238 -8.65545 1.79583
rclavicle 1.11319e-014 -1.90833e-014
rhumerus 43.5674 -24.113 -61.7566
rradius 53.9778
rwrist -35.4799
rhand -12.596 7.65172
rfingers 7.12502
rthumb 13.4826 -21.8919
lclavicle 1.11319e-014 -1.90833e-014
lhumerus -26.1686 2.64506 72.685
lradius 20.6647
lwrist -23.1508
lhand -19.8698 -4.24101
lfingers 7.12502
lthumb 6.4655 25.6403
rfemur -3.17633 -1.64591 18.0755
rtibia 36.5834
rfoot -8.03111 21.0982
rtoes -19.6932
lfemur -16.4317 3.51827 -16.5194
ltibia 26.0914
lfoot -1.60368 -19.2492
ltoes 5.52233
171
root -18.2213 19.4674 -0.365892 1812.98 -81.7464 -371.441
lowerback -6.05163 7.10437 -5.04854
upperback 7.19029 10.6405 -9.27627
thorax 12.2323 5.01882 -5.64727
lowerneck -3.36226 -12.5823 4.012
upperneck 4.49887 -17.7871 9.65589
head 2.62328 -8.64218 1.79172
rclavicle 8.18993e-014 3.18055e-014
rhumerus 43.6791 -24.6845 -63.5459
rradius 55.5875
rwrist -35.7565
rhand -13.8269 7.47484
rfingers 7.12502
rthumb 12.296 -22.1436
lclavicle 8.18993e-014 3.18055e-014
lhumerus -26.2283 2.25721 72.824
lradius 20.8348
lwrist -22.8289
lhand -19.9385 -4.47947
lfingers 7.12502
lthumb 6.39918 25.4039
rfemur -2.89664 -1.37291 18.0429
rtibia 36.4122
rfoot -7.62225 21.6058
rtoes -19.2055
lfemur -16.4924 3.30291 -16.5021
ltibia 26.0164
lfoot -1.31522 -19.344
ltoes 6.06188
172
root -18.1948 19.4653 -0.387752 1812.41 -81.5332 -370.903
lowerback -6.1156 7.04283 -5.00799
upperback 7.17229 10.5608 -9.2392
thorax 12.2414 4.98317 -5.63413
lowerneck -3.31074 -12.5701 3.86073
upperneck 4.65621 -17.7769 9.66561
head 2.68335 -8.63125 1.81509
rclavicle 1.65389e-013 -8.5875e-014
rhumerus 43.7972 -25.2247 -65.2907
rradius 57.2971
rwrist -36.0788
rhand -15.0269 7.17696
rfingers 7.12502
rthumb 11.1388 -22.5074
lclavicle 1.65389e-013 -8.5875e-014
lhumerus -26.2716 1.90337 73.0047
lradius 20.9992
lwrist -22.486
lhand -20.001 -4.73799
lfingers 7.12502
lthumb 6.33885 25.1472
rfemur -2.61581 -1.07687 18.0415
rtibia 36.2226
rfoot -7.20322 22.1343
rtoes -18.6568
lfemur -16.5577 3.13454 -16.472
ltibia 25.9525
lfoot -1.09583 -19.514
ltoes 6.11565
173
root -18.1664 19.4625 -0.410372 1811.57 -81.304 -370.065
lowerback -6.20583 6.97494 -4.99914
upperback 7.17215 10.4813 -9.21995
thorax 12.2862 4.9446 -5.62143
lowerneck -3.37504 -12.5532 3.76821
upperneck 4.86106 -17.7724 9.61969
head 2.76835 -8.61745 1.80303
rclavicle -4.21423e-014 2.54444e-014
rhumerus 43.9313 -25.7551 -67.0249
rradius 59.073
rwrist -36.4554
rhand -16.2464 6.86077
rfingers 7.12502
rthumb 9.96249 -22.8835
lclavicle -4.21423e-014 2.54444e-014
lhumerus -26.259 1.63964 73.1648
lradius 21.1691
lwrist -22.2247
lhand -19.9678 -5.02625
lfingers 7.12502
lthumb 6.37086 24.8579
rfemur -2.34776 -0.773034 18.0041
rtibia 36.0154
rfoot -6.84502 22.651
rtoes -18.4195
lfemur -16.6636 2.99143 -16.4955
ltibia 25.9082
lfoot -0.876464 -19.7127
ltoes 6.20122
174
root -18.1372 19.4572 -0.433066 1810.87 -81.0577 -369.373
lowerback -6.29787 6.91139 -4.95092
upperback 7.16926 10.4042 -9.1987
thorax 12.3362 4.91104 -5.6273
lowerneck -3.39673 -12.5267 3.63469
upperneck 4.99687 -17.7494 9.64939
head 2.83452 -8.59869 1.82633
rclavicle 5.56597e-015 1.59028e-014
rhumerus 44.0117 -26.2352 -68.7106
rradius 60.8858
rwrist -36.7352
rhand -17.4852 6.60991
rfingers 7.12502
rthumb 8.76719 -23.188
lclavicle 5.56597e-015 1.59028e-014
lhumerus -26.2346 1.43024 73.3189
lradius 21.319
lwrist -22.0247
lhand -19.9536 -5.35593
lfingers 7.12502
lthumb 6.38464 24.5278
rfemur -2.07278 -0.504653 17.9826
rtibia 35.7809
rfoot -6.51878 23.2184
rtoes -18.4132
lfemur -16.784 2.81205 -16.5018
ltibia 25.8969
lfoot -0.648426 -19.8866
ltoes 6.44433
175
root -18.1065 19.4521 -0.456724 1810.21 -80.813 -368.74
lowerback -6.35808 6.87054 -4.87912
upperback 7.17172 10.3528 -9.19537
thorax 12.3841 4.89327 -5.66511
lowerneck -3.48229 -12.5154 3.56986
upperneck 5.18388 -17.7559 9.62669
head 2.91812 -8.5902 1.81621
rclavicle -2.62396e-014 3.49861e-014
rhumerus 43.9723 -26.6942 -70.3487
rradius 62.7389
rwrist -36.8082
rhand -18.8236 6.60211
rfingers 7.12502
rthumb 7.47539 -23.2458
lclavicle -2.62396e-014 3.49861e-014
lhumerus -26.1491 1.19906 73.4557
lradius 21.4364
lwrist -21.9227
lhand -19.9111 -5.70232
lfingers 7.12502
lthumb 6.4256 24.1802
rfemur -1.77494 -0.178815 17.9777
rtibia 35.5197
rfoot -6.21821 23.7758
rtoes -18.6105
lfemur -16.901 2.66397 -16.4995
ltibia 25.9069
lfoot -0.423301 -20.0953
ltoes 6.66768
176
root -18.0744 19.444 -0.481229 1809.56 -80.5315 -368.093
lowerback -6.42125 6.81503 -4.81914
upperback 7.1399 10.2793 -9.18134
thorax 12.3863 4.8643 -5.68799
lowerneck -3.45373 -12.499 3.47211
upperneck 5.33684 -17.7382 9.57994
head 2.96928 -8.57598 1.81378
rclavicle -7.15625e-014 0
rhumerus 43.8932 -27.1074 -72.0574
rradius 64.6496
rwrist -36.8186
rhand -20.0379 6.63098
rfingers 7.12502
rthumb 6.30322 -23.2552
lclavicle -7.15625e-014 0
lhumerus -26.1407 1.05581 73.6002
lradius 21.571
lwrist -21.8541
lhand -19.8722 -5.98756
lfingers 7.12502
lthumb 6.4632 23.8938
rfemur -1.49889 0.121162 17.9801
rtibia 35.2319
rfoot -5.92293 24.3575
rtoes -18.7902
lfemur -17.0853 2.46579 -16.499
ltibia 25.9501
lfoot -0.189659 -20.2668
ltoes 7.01131
177
root -18.0406 19.437 -0.506223 1808.8 -80.2335 -367.36
lowerback -6.44205 6.76777 -4.77146
upperback 7.12256 10.2138 -9.16407
thorax 12.3771 4.83803 -5.70358
lowerneck -3.4254 -12.4952 3.40211
upperneck 5.46139 -17.7338 9.51602
head 3.00649 -8.56992 1.80235
rclavicle -1.04958e-013 3.18055e-014
rhumerus 43.7237 -27.5169 -73.7272
rradius 66.7073
rwrist -36.8547
rhand -21.2175 6.64751
rfingers 7.12502
rthumb 5.16435 -23.2696
lclavicle -1.04958e-013 3.18055e-014
lhumerus -26.1001 0.966544 73.7558
lradius 21.7058
lwrist -21.9114
lhand -19.7892 -6.20267
lfingers 7.12502
lthumb 6.54329 23.6762
rfemur -1.19233 0.420972 17.9659
rtibia 34.9145
rfoot -5.60986 24.9339
rtoes -18.7774
lfemur -17.2466 2.27878 -16.526
ltibia 26.0096
lfoot 0.0179056 -20.4866
ltoes 7.0664
178
root -18.0059 19.428 -0.532028 1808.09 -79.9342 -366.667
lowerback -6.4816 6.72463 -4.70802
upperback 7.10315 10.1553 -9.16001
thorax 12.3838 4.8171 -5.73958
lowerneck -3.42986 -12.486 3.3883
upperneck 5.61059 -17.7239 9.39053
head 3.04517 -8.55943 1.76096
rclavicle -3.81667e-014 -4.13472e-014
rhumerus 43.4791 -27.899 -75.3742
rradius 68.8365
rwrist -36.8971
rhand -22.3305 6.83359
rfingers 7.12502
rthumb 4.08966 -23.1069
lclavicle -3.81667e-014 -4.13472e-014
lhumerus -26.0066 0.885382 73.9016
lradius 21.7802
lwrist -22.0011
lhand -19.8022 -6.36205
lfingers 7.12502
lthumb 6.53076 23.5173
rfemur -0.900953 0.765259 17.9621
rtibia 34.5845
rfoot -5.26833 25.492
rtoes -18.7285
lfemur -17.4295 2.12126 -16.5544
ltibia 26.0779
lfoot 0.220931 -20.7147
ltoes 7.23567
179
root -17.969 19.4198 -0.558128 1807.39 -79.5998 -365.985
lowerback -6.50525 6.67185 -4.66182
upperback 7.07872 10.0814 -9.12726
thorax 12.363 4.78617 -5.73813
lowerneck -3.38949 -12.4756 3.32664
upperneck 5.77774 -17.7045 9.23499
head 3.08294 -8.54591 1.72024
rclavicle -5.40694e-014 -5.725e-014
rhumerus 43.1514 -28.214 -76.8878
rradius 71.0251
rwrist -36.9683
rhand -23.4468 7.03884
rfingers 7.12502
rthumb 3.01163 -22.9196
lclavicle -5.40694e-014 -5.725e-014
lhumerus -25.9199 0.970699 74.0801
lradius 21.8263
lwrist -22.2445
lhand -19.8403 -6.47014
lfingers 7.12502
lthumb 6.49401 23.4103
rfemur -0.604753 1.1417 17.9615
rtibia 34.2352
rfoot -4.90442 26.066
rtoes -18.6202
lfemur -17.6348 1.905 -16.5856
ltibia 26.1514
lfoot 0.457139 -20.9161
ltoes 7.41956
